<mxfile host="Electron" agent="Mozilla/5.0 (X11; Linux x86_64) AppleWebKit/537.36 (KHTML, like Gecko) draw.io/24.7.17 Chrome/128.0.6613.36 Electron/32.0.1 Safari/537.36" version="24.7.17">
  <diagram name="Page-1" id="VOTwZXIP0C5Wm990iq9c">
    <mxGraphModel dx="962" dy="570" grid="1" gridSize="10" guides="1" tooltips="1" connect="1" arrows="1" fold="1" page="1" pageScale="1" pageWidth="850" pageHeight="1100" math="1" shadow="0">
      <root>
        <mxCell id="0" />
        <mxCell id="1" parent="0" />
        <mxCell id="DH1XRu-fGJWWLNNBZg_z-2" value="" style="verticalLabelPosition=bottom;shadow=0;dashed=0;align=center;html=1;verticalAlign=top;shape=mxgraph.electrical.transistors.pmos;pointerEvents=1;direction=east;flipH=0;strokeWidth=2;" parent="1" vertex="1">
          <mxGeometry x="200" y="180" width="60" height="100" as="geometry" />
        </mxCell>
        <mxCell id="DH1XRu-fGJWWLNNBZg_z-3" value="" style="verticalLabelPosition=bottom;shadow=0;dashed=0;align=center;html=1;verticalAlign=top;shape=mxgraph.electrical.transistors.pnp_transistor_5;flipH=1;strokeWidth=2;" parent="1" vertex="1">
          <mxGeometry x="80" y="520" width="64" height="100" as="geometry" />
        </mxCell>
        <mxCell id="DH1XRu-fGJWWLNNBZg_z-4" value="" style="verticalLabelPosition=bottom;shadow=0;dashed=0;align=center;html=1;verticalAlign=top;shape=mxgraph.electrical.transistors.pnp_transistor_5;flipH=0;strokeWidth=2;" parent="1" vertex="1">
          <mxGeometry x="256" y="520" width="64" height="100" as="geometry" />
        </mxCell>
        <mxCell id="DH1XRu-fGJWWLNNBZg_z-5" value="" style="pointerEvents=1;verticalLabelPosition=bottom;shadow=0;dashed=0;align=center;html=1;verticalAlign=top;shape=mxgraph.electrical.resistors.resistor_1;direction=south;strokeWidth=2;" parent="1" vertex="1">
          <mxGeometry x="75" y="339" width="10" height="70" as="geometry" />
        </mxCell>
        <mxCell id="DH1XRu-fGJWWLNNBZg_z-6" value="" style="pointerEvents=1;verticalLabelPosition=bottom;shadow=0;dashed=0;align=center;html=1;verticalAlign=top;shape=mxgraph.electrical.resistors.resistor_1;direction=south;strokeWidth=2;" parent="1" vertex="1">
          <mxGeometry x="315" y="339" width="10" height="70" as="geometry" />
        </mxCell>
        <mxCell id="DH1XRu-fGJWWLNNBZg_z-7" value="" style="pointerEvents=1;verticalLabelPosition=bottom;shadow=0;dashed=0;align=center;html=1;verticalAlign=top;shape=mxgraph.electrical.resistors.resistor_1;direction=south;strokeWidth=2;" parent="1" vertex="1">
          <mxGeometry x="315" y="442" width="10" height="70" as="geometry" />
        </mxCell>
        <mxCell id="DH1XRu-fGJWWLNNBZg_z-9" value="" style="endArrow=none;html=1;rounded=0;strokeWidth=4;" parent="1" edge="1">
          <mxGeometry width="50" height="50" relative="1" as="geometry">
            <mxPoint x="74" y="180" as="sourcePoint" />
            <mxPoint x="354" y="180" as="targetPoint" />
          </mxGeometry>
        </mxCell>
        <mxCell id="DH1XRu-fGJWWLNNBZg_z-10" value="" style="endArrow=none;html=1;rounded=0;exitX=1;exitY=0;exitDx=0;exitDy=0;exitPerimeter=0;entryX=1;entryY=0.5;entryDx=0;entryDy=0;entryPerimeter=0;strokeWidth=2;" parent="1" source="DH1XRu-fGJWWLNNBZg_z-3" target="DH1XRu-fGJWWLNNBZg_z-5" edge="1">
          <mxGeometry width="50" height="50" relative="1" as="geometry">
            <mxPoint x="30" y="430" as="sourcePoint" />
            <mxPoint x="80" y="380" as="targetPoint" />
          </mxGeometry>
        </mxCell>
        <mxCell id="DH1XRu-fGJWWLNNBZg_z-12" value="" style="endArrow=none;html=1;rounded=0;exitX=1;exitY=0.5;exitDx=0;exitDy=0;strokeWidth=2;" parent="1" source="s4SiOP88Y1OLbog2NG3d-1" edge="1">
          <mxGeometry width="50" height="50" relative="1" as="geometry">
            <mxPoint x="200.0949999999999" y="307.8399999999999" as="sourcePoint" />
            <mxPoint x="200" y="230" as="targetPoint" />
          </mxGeometry>
        </mxCell>
        <mxCell id="DH1XRu-fGJWWLNNBZg_z-13" value="" style="endArrow=none;html=1;rounded=0;strokeWidth=2;" parent="1" source="DH1XRu-fGJWWLNNBZg_z-35" edge="1">
          <mxGeometry width="50" height="50" relative="1" as="geometry">
            <mxPoint x="80" y="280" as="sourcePoint" />
            <mxPoint x="362" y="280" as="targetPoint" />
          </mxGeometry>
        </mxCell>
        <mxCell id="DH1XRu-fGJWWLNNBZg_z-14" value="" style="endArrow=none;html=1;rounded=0;strokeWidth=2;" parent="1" source="DH1XRu-fGJWWLNNBZg_z-17" edge="1">
          <mxGeometry width="50" height="50" relative="1" as="geometry">
            <mxPoint x="260" y="290" as="sourcePoint" />
            <mxPoint x="260" y="270" as="targetPoint" />
          </mxGeometry>
        </mxCell>
        <mxCell id="DH1XRu-fGJWWLNNBZg_z-15" value="" style="endArrow=none;html=1;rounded=0;exitX=0.014;exitY=0.5;exitDx=0;exitDy=0;exitPerimeter=0;strokeWidth=2;entryX=0.495;entryY=1.024;entryDx=0;entryDy=0;entryPerimeter=0;" parent="1" source="DH1XRu-fGJWWLNNBZg_z-6" target="DH1XRu-fGJWWLNNBZg_z-35" edge="1">
          <mxGeometry width="50" height="50" relative="1" as="geometry">
            <mxPoint x="320" y="310" as="sourcePoint" />
            <mxPoint x="320" y="290" as="targetPoint" />
          </mxGeometry>
        </mxCell>
        <mxCell id="DH1XRu-fGJWWLNNBZg_z-16" value="" style="endArrow=none;html=1;rounded=0;exitX=0;exitY=0.5;exitDx=0;exitDy=0;exitPerimeter=0;strokeWidth=2;" parent="1" source="DH1XRu-fGJWWLNNBZg_z-5" edge="1">
          <mxGeometry width="50" height="50" relative="1" as="geometry">
            <mxPoint x="79.92000000000002" y="310" as="sourcePoint" />
            <mxPoint x="80" y="280" as="targetPoint" />
          </mxGeometry>
        </mxCell>
        <mxCell id="DH1XRu-fGJWWLNNBZg_z-18" value="" style="endArrow=none;html=1;rounded=0;strokeWidth=2;" parent="1" edge="1">
          <mxGeometry width="50" height="50" relative="1" as="geometry">
            <mxPoint x="80" y="440" as="sourcePoint" />
            <mxPoint x="173" y="440" as="targetPoint" />
          </mxGeometry>
        </mxCell>
        <mxCell id="DH1XRu-fGJWWLNNBZg_z-19" value="" style="endArrow=none;html=1;rounded=0;strokeWidth=2;entryX=0.5;entryY=1;entryDx=0;entryDy=0;entryPerimeter=0;" parent="1" edge="1" target="s4SiOP88Y1OLbog2NG3d-13">
          <mxGeometry width="50" height="50" relative="1" as="geometry">
            <mxPoint x="172" y="440" as="sourcePoint" />
            <mxPoint x="171.92000000000002" y="430" as="targetPoint" />
          </mxGeometry>
        </mxCell>
        <mxCell id="DH1XRu-fGJWWLNNBZg_z-20" value="" style="shape=waypoint;sketch=0;fillStyle=solid;size=6;pointerEvents=1;points=[];fillColor=none;resizable=0;rotatable=0;perimeter=centerPerimeter;snapToPoint=1;strokeWidth=1;" parent="1" vertex="1">
          <mxGeometry x="70" y="430" width="20" height="20" as="geometry" />
        </mxCell>
        <mxCell id="DH1XRu-fGJWWLNNBZg_z-21" value="" style="endArrow=none;html=1;rounded=0;strokeWidth=2;" parent="1" edge="1">
          <mxGeometry width="50" height="50" relative="1" as="geometry">
            <mxPoint x="227.98" y="440" as="sourcePoint" />
            <mxPoint x="227.98" y="388" as="targetPoint" />
          </mxGeometry>
        </mxCell>
        <mxCell id="DH1XRu-fGJWWLNNBZg_z-22" value="" style="endArrow=none;html=1;rounded=0;strokeWidth=2;" parent="1" edge="1">
          <mxGeometry width="50" height="50" relative="1" as="geometry">
            <mxPoint x="228" y="439.93" as="sourcePoint" />
            <mxPoint x="320" y="440" as="targetPoint" />
          </mxGeometry>
        </mxCell>
        <mxCell id="DH1XRu-fGJWWLNNBZg_z-23" value="" style="endArrow=none;html=1;rounded=0;exitX=0.002;exitY=0.501;exitDx=0;exitDy=0;exitPerimeter=0;entryX=1;entryY=0.5;entryDx=0;entryDy=0;entryPerimeter=0;strokeWidth=2;" parent="1" source="DH1XRu-fGJWWLNNBZg_z-7" target="DH1XRu-fGJWWLNNBZg_z-6" edge="1">
          <mxGeometry width="50" height="50" relative="1" as="geometry">
            <mxPoint x="320" y="440" as="sourcePoint" />
            <mxPoint x="320" y="380" as="targetPoint" />
          </mxGeometry>
        </mxCell>
        <mxCell id="DH1XRu-fGJWWLNNBZg_z-24" value="" style="shape=waypoint;sketch=0;fillStyle=solid;size=6;pointerEvents=1;points=[];fillColor=none;resizable=0;rotatable=0;perimeter=centerPerimeter;snapToPoint=1;strokeWidth=1;" parent="1" vertex="1">
          <mxGeometry x="310" y="430" width="20" height="20" as="geometry" />
        </mxCell>
        <mxCell id="DH1XRu-fGJWWLNNBZg_z-25" value="" style="endArrow=none;html=1;rounded=0;strokeWidth=2;" parent="1" edge="1">
          <mxGeometry width="50" height="50" relative="1" as="geometry">
            <mxPoint x="259.96" y="190" as="sourcePoint" />
            <mxPoint x="259.96" y="180" as="targetPoint" />
          </mxGeometry>
        </mxCell>
        <mxCell id="DH1XRu-fGJWWLNNBZg_z-26" value="" style="endArrow=none;html=1;rounded=0;strokeWidth=4;" parent="1" edge="1">
          <mxGeometry width="50" height="50" relative="1" as="geometry">
            <mxPoint x="60" y="620" as="sourcePoint" />
            <mxPoint x="340" y="620" as="targetPoint" />
          </mxGeometry>
        </mxCell>
        <mxCell id="DH1XRu-fGJWWLNNBZg_z-27" value="" style="endArrow=none;html=1;rounded=0;entryX=0;entryY=0.5;entryDx=0;entryDy=0;entryPerimeter=0;strokeWidth=2;" parent="1" target="DH1XRu-fGJWWLNNBZg_z-4" edge="1">
          <mxGeometry width="50" height="50" relative="1" as="geometry">
            <mxPoint x="140" y="570" as="sourcePoint" />
            <mxPoint x="190" y="520" as="targetPoint" />
          </mxGeometry>
        </mxCell>
        <mxCell id="DH1XRu-fGJWWLNNBZg_z-28" value="" style="endArrow=none;html=1;rounded=0;strokeWidth=2;" parent="1" edge="1">
          <mxGeometry width="50" height="50" relative="1" as="geometry">
            <mxPoint x="200" y="620" as="sourcePoint" />
            <mxPoint x="200" y="570" as="targetPoint" />
          </mxGeometry>
        </mxCell>
        <mxCell id="DH1XRu-fGJWWLNNBZg_z-29" value="" style="shape=waypoint;sketch=0;fillStyle=solid;size=6;pointerEvents=1;points=[];fillColor=none;resizable=0;rotatable=0;perimeter=centerPerimeter;snapToPoint=1;strokeWidth=1;" parent="1" vertex="1">
          <mxGeometry x="190" y="560" width="20" height="20" as="geometry" />
        </mxCell>
        <mxCell id="DH1XRu-fGJWWLNNBZg_z-30" value="&lt;font style=&quot;font-size: 18px;&quot;&gt;$$R_2$$&lt;/font&gt;" style="text;html=1;align=center;verticalAlign=middle;whiteSpace=wrap;rounded=0;" parent="1" vertex="1">
          <mxGeometry x="320" y="358" width="60" height="30" as="geometry" />
        </mxCell>
        <mxCell id="DH1XRu-fGJWWLNNBZg_z-31" value="&lt;font style=&quot;font-size: 18px;&quot;&gt;$$R_1$$&lt;/font&gt;" style="text;html=1;align=center;verticalAlign=middle;whiteSpace=wrap;rounded=0;" parent="1" vertex="1">
          <mxGeometry x="320" y="462" width="60" height="30" as="geometry" />
        </mxCell>
        <mxCell id="DH1XRu-fGJWWLNNBZg_z-32" value="" style="endArrow=none;html=1;rounded=0;entryX=1;entryY=0.5;entryDx=0;entryDy=0;entryPerimeter=0;strokeWidth=2;" parent="1" edge="1">
          <mxGeometry width="50" height="50" relative="1" as="geometry">
            <mxPoint x="320" y="522" as="sourcePoint" />
            <mxPoint x="320" y="512" as="targetPoint" />
          </mxGeometry>
        </mxCell>
        <mxCell id="DH1XRu-fGJWWLNNBZg_z-33" value="&lt;font style=&quot;font-size: 18px;&quot;&gt;$$n$$&lt;/font&gt;" style="text;html=1;align=center;verticalAlign=middle;whiteSpace=wrap;rounded=0;" parent="1" vertex="1">
          <mxGeometry x="290" y="560" width="60" height="30" as="geometry" />
        </mxCell>
        <mxCell id="DH1XRu-fGJWWLNNBZg_z-34" value="&lt;font style=&quot;font-size: 18px;&quot;&gt;$$1$$&lt;/font&gt;" style="text;html=1;align=center;verticalAlign=middle;whiteSpace=wrap;rounded=0;" parent="1" vertex="1">
          <mxGeometry x="50" y="560" width="60" height="30" as="geometry" />
        </mxCell>
        <mxCell id="DH1XRu-fGJWWLNNBZg_z-36" value="&lt;font style=&quot;font-size: 18px;&quot;&gt;$$V_{bg}$$&lt;/font&gt;" style="text;html=1;align=center;verticalAlign=middle;whiteSpace=wrap;rounded=0;" parent="1" vertex="1">
          <mxGeometry x="330" y="250" width="60" height="30" as="geometry" />
        </mxCell>
        <mxCell id="DH1XRu-fGJWWLNNBZg_z-71" value="&lt;font style=&quot;font-size: 18px;&quot;&gt;$$R_2$$&lt;/font&gt;" style="text;html=1;align=center;verticalAlign=middle;whiteSpace=wrap;rounded=0;" parent="1" vertex="1">
          <mxGeometry x="82" y="358" width="60" height="30" as="geometry" />
        </mxCell>
        <mxCell id="DH1XRu-fGJWWLNNBZg_z-80" value="&lt;font style=&quot;font-size: 18px;&quot;&gt;$$V_{be1}$$&lt;/font&gt;" style="text;html=1;align=center;verticalAlign=middle;whiteSpace=wrap;rounded=0;" parent="1" vertex="1">
          <mxGeometry x="82" y="510" width="60" height="30" as="geometry" />
        </mxCell>
        <mxCell id="DH1XRu-fGJWWLNNBZg_z-81" value="&lt;font style=&quot;font-size: 18px;&quot;&gt;$$V_{be2}$$&lt;/font&gt;" style="text;html=1;align=center;verticalAlign=middle;whiteSpace=wrap;rounded=0;" parent="1" vertex="1">
          <mxGeometry x="255" y="512" width="60" height="30" as="geometry" />
        </mxCell>
        <mxCell id="DH1XRu-fGJWWLNNBZg_z-95" value="" style="endArrow=none;html=1;rounded=0;strokeWidth=2;" parent="1" target="DH1XRu-fGJWWLNNBZg_z-35" edge="1">
          <mxGeometry width="50" height="50" relative="1" as="geometry">
            <mxPoint x="80" y="280" as="sourcePoint" />
            <mxPoint x="362" y="280" as="targetPoint" />
          </mxGeometry>
        </mxCell>
        <mxCell id="DH1XRu-fGJWWLNNBZg_z-35" value="" style="shape=waypoint;sketch=0;fillStyle=solid;size=6;pointerEvents=1;points=[];fillColor=none;resizable=0;rotatable=0;perimeter=centerPerimeter;snapToPoint=1;" parent="1" vertex="1">
          <mxGeometry x="310" y="270" width="20" height="20" as="geometry" />
        </mxCell>
        <mxCell id="DH1XRu-fGJWWLNNBZg_z-96" value="" style="endArrow=none;html=1;rounded=0;strokeWidth=2;exitX=0.485;exitY=0.99;exitDx=0;exitDy=0;exitPerimeter=0;" parent="1" source="DH1XRu-fGJWWLNNBZg_z-17" target="DH1XRu-fGJWWLNNBZg_z-17" edge="1">
          <mxGeometry width="50" height="50" relative="1" as="geometry">
            <mxPoint x="260" y="290" as="sourcePoint" />
            <mxPoint x="260" y="270" as="targetPoint" />
            <Array as="points">
              <mxPoint x="260" y="280" />
            </Array>
          </mxGeometry>
        </mxCell>
        <mxCell id="DH1XRu-fGJWWLNNBZg_z-17" value="" style="shape=waypoint;sketch=0;fillStyle=solid;size=6;pointerEvents=1;points=[];fillColor=none;resizable=0;rotatable=0;perimeter=centerPerimeter;snapToPoint=1;strokeWidth=1;" parent="1" vertex="1">
          <mxGeometry x="250" y="270" width="20" height="20" as="geometry" />
        </mxCell>
        <mxCell id="s4SiOP88Y1OLbog2NG3d-5" value="" style="group" vertex="1" connectable="0" parent="1">
          <mxGeometry x="140" y="299" width="120" height="90" as="geometry" />
        </mxCell>
        <mxCell id="s4SiOP88Y1OLbog2NG3d-1" value="" style="triangle;whiteSpace=wrap;html=1;direction=north;strokeWidth=2;fillColor=none;" vertex="1" parent="s4SiOP88Y1OLbog2NG3d-5">
          <mxGeometry width="120" height="90" as="geometry" />
        </mxCell>
        <mxCell id="s4SiOP88Y1OLbog2NG3d-2" value="" style="endArrow=none;html=1;rounded=0;strokeWidth=3;" edge="1" parent="s4SiOP88Y1OLbog2NG3d-5">
          <mxGeometry width="50" height="50" relative="1" as="geometry">
            <mxPoint x="73" y="76" as="sourcePoint" />
            <mxPoint x="93" y="76" as="targetPoint" />
          </mxGeometry>
        </mxCell>
        <mxCell id="s4SiOP88Y1OLbog2NG3d-3" value="" style="endArrow=none;html=1;rounded=0;strokeWidth=3;" edge="1" parent="s4SiOP88Y1OLbog2NG3d-5">
          <mxGeometry width="50" height="50" relative="1" as="geometry">
            <mxPoint x="83" y="66" as="sourcePoint" />
            <mxPoint x="83" y="86" as="targetPoint" />
          </mxGeometry>
        </mxCell>
        <mxCell id="s4SiOP88Y1OLbog2NG3d-4" value="" style="endArrow=none;html=1;rounded=0;strokeWidth=3;" edge="1" parent="s4SiOP88Y1OLbog2NG3d-5">
          <mxGeometry width="50" height="50" relative="1" as="geometry">
            <mxPoint x="26" y="76" as="sourcePoint" />
            <mxPoint x="46" y="76" as="targetPoint" />
          </mxGeometry>
        </mxCell>
        <mxCell id="s4SiOP88Y1OLbog2NG3d-14" value="" style="endArrow=none;html=1;rounded=0;strokeWidth=2;exitX=0.5;exitY=0;exitDx=0;exitDy=0;exitPerimeter=0;" edge="1" parent="s4SiOP88Y1OLbog2NG3d-5" source="s4SiOP88Y1OLbog2NG3d-13">
          <mxGeometry width="50" height="50" relative="1" as="geometry">
            <mxPoint x="32.08000000000001" y="100" as="sourcePoint" />
            <mxPoint x="32.00000000000003" y="90" as="targetPoint" />
          </mxGeometry>
        </mxCell>
        <mxCell id="s4SiOP88Y1OLbog2NG3d-11" value="&lt;font style=&quot;font-size: 18px;&quot;&gt;$$V_\text{ip}$$&lt;/font&gt;" style="text;html=1;align=center;verticalAlign=middle;whiteSpace=wrap;rounded=0;" vertex="1" parent="1">
          <mxGeometry x="310" y="412" width="60" height="30" as="geometry" />
        </mxCell>
        <mxCell id="s4SiOP88Y1OLbog2NG3d-12" value="&lt;font style=&quot;font-size: 18px;&quot;&gt;$$V_\text{im}$$&lt;/font&gt;" style="text;html=1;align=center;verticalAlign=middle;whiteSpace=wrap;rounded=0;" vertex="1" parent="1">
          <mxGeometry x="30" y="412" width="60" height="30" as="geometry" />
        </mxCell>
        <mxCell id="s4SiOP88Y1OLbog2NG3d-13" value="" style="pointerEvents=1;verticalLabelPosition=bottom;shadow=0;dashed=0;align=center;html=1;verticalAlign=top;shape=mxgraph.electrical.signal_sources.source;aspect=fixed;points=[[0.5,0,0],[1,0.5,0],[0.5,1,0],[0,0.5,0]];elSignalType=dc3;fillColor=none;strokeWidth=2;" vertex="1" parent="1">
          <mxGeometry x="155" y="398" width="34" height="34" as="geometry" />
        </mxCell>
        <mxCell id="s4SiOP88Y1OLbog2NG3d-16" value="&lt;font style=&quot;font-size: 16px;&quot;&gt;$$V_\text{os}$$&lt;/font&gt;" style="text;html=1;align=center;verticalAlign=middle;whiteSpace=wrap;rounded=0;" vertex="1" parent="1">
          <mxGeometry x="110" y="398" width="60" height="30" as="geometry" />
        </mxCell>
      </root>
    </mxGraphModel>
  </diagram>
</mxfile>
